<?xml version="1.0" encoding="UTF-8"?>
<!-- EVA brand kit · eva-lockup-radar-ink · guidelines v2.2 Malachite & Slate -->
<svg xmlns="http://www.w3.org/2000/svg" viewBox="0 0 430.9 82.0" width="431" height="82" role="img" aria-label="EVA RADAR">
  <g transform="translate(18.0 12.742857142857144) scale(0.65714)" fill="#0D1112">
    <path d="M0 8 H62 V22 H16 V36 H52 V50 H16 V64 H62 V78 H0 Z"/>
    <path d="M84 8 H104 L124 62 L144 8 H164 L134 78 H114 Z"/>
    <path d="M200 8 H222 L252 78 H232 L211 26 L190 78 H170 Z"/>
  </g>
  <rect x="198.32" y="37.00" width="22.0" height="8.0" fill="#0E7A52"/>
  <g transform="translate(235.04 64.00)" fill="#465257">
    <path transform="translate(0.00 0) scale(0.04257 -0.04257)" d="M319 613C412 613 456 570 456 488C456 415 415 356 311 356H252C252 441 252 527 254 613ZM39 617 123 608C125 523 125 437 125 353V310C125 224 125 139 123 56L39 47V0H340V47L254 56C252 136 252 216 252 306H296C367 306 398 284 413 209L443 70C454 8 492 -12 565 -12C603 -12 624 -8 656 0V47L579 56L548 186C529 272 495 315 410 329C533 349 584 420 584 493C584 600 495 664 340 664H39Z"/>
    <path transform="translate(35.16 0) scale(0.04257 -0.04257)" d="M7 0H229V47L142 60L190 205H408L456 57L368 46V0H657V46L589 54L380 667H298L89 59L7 47ZM208 257 300 534 391 257Z"/>
    <path transform="translate(70.45 0) scale(0.04257 -0.04257)" d="M254 318V353C254 440 254 528 256 613H319C449 613 528 514 528 332C528 154 449 52 313 52H256C254 138 254 226 254 318ZM39 617 123 608C125 523 125 437 125 353V318C125 226 125 140 123 56L39 47V0H316C522 0 667 120 667 332C667 542 537 664 335 664H39Z"/>
    <path transform="translate(107.40 0) scale(0.04257 -0.04257)" d="M7 0H229V47L142 60L190 205H408L456 57L368 46V0H657V46L589 54L380 667H298L89 59L7 47ZM208 257 300 534 391 257Z"/>
    <path transform="translate(142.69 0) scale(0.04257 -0.04257)" d="M319 613C412 613 456 570 456 488C456 415 415 356 311 356H252C252 441 252 527 254 613ZM39 617 123 608C125 523 125 437 125 353V310C125 224 125 139 123 56L39 47V0H340V47L254 56C252 136 252 216 252 306H296C367 306 398 284 413 209L443 70C454 8 492 -12 565 -12C603 -12 624 -8 656 0V47L579 56L548 186C529 272 495 315 410 329C533 349 584 420 584 493C584 600 495 664 340 664H39Z"/>
  </g>
</svg>
